<svg width="112" height="112" viewBox="0 0 112 112" fill="none" xmlns="http://www.w3.org/2000/svg">
<circle opacity="0.8" cx="55.5126" cy="55.5126" r="50.3952" transform="rotate(-6.16081 55.5126 55.5126)" fill="white"/>
<circle cx="55.5126" cy="55.5124" r="39.3713" transform="rotate(-6.16081 55.5126 55.5124)" fill="white"/>
<g clip-path="url(#clip0_18_4514)">
<path d="M46.1963 56.5178C50.5123 56.0519 53.6251 52.151 53.1552 47.7972C52.6852 43.4433 48.8116 40.2965 44.4956 40.7624C40.1796 41.2283 37.0668 45.1292 37.5367 49.4831C38.0067 53.8369 41.8803 56.9837 46.1963 56.5178ZM51.7941 58.1906L51.2154 58.253C49.8411 59.113 48.276 59.7088 46.5607 59.894C44.8455 60.0791 43.1963 59.8302 41.6631 59.2841L41.0844 59.3466C36.6498 59.8253 33.4438 63.843 33.9267 68.3164L34.1453 70.3421C34.3465 72.206 36.0089 73.5565 37.8566 73.357L57.9374 71.1894C59.7851 70.99 61.1209 69.3159 60.9197 67.452L60.7011 65.4263C60.2182 60.9529 56.2286 57.7119 51.7941 58.1906ZM66.2771 54.3502C69.9725 53.9513 72.6442 50.6032 72.2418 46.8754C71.8394 43.1476 68.5148 40.4467 64.8194 40.8456C61.1239 41.2445 58.4522 44.5926 58.8546 48.3204C59.257 52.0483 62.5817 54.7491 66.2771 54.3502ZM69.8669 56.2398L69.6019 56.2684C68.6692 56.7106 67.6685 57.0463 66.5808 57.1637C65.4931 57.2811 64.4438 57.1667 63.4382 56.9337L63.1733 56.9623C61.7509 57.1158 60.4848 57.6723 59.4065 58.4647C61.3075 60.1309 62.6392 62.4705 62.9323 65.1855L63.2238 67.8864C63.2405 68.0412 63.2216 68.1926 63.2306 68.3411L75.544 67.0119C77.3917 66.8125 78.7276 65.1384 78.5264 63.2745C78.0564 58.9207 74.1828 55.7739 69.8669 56.2398Z" fill="#7454BD"/>
</g>
<defs>
<clipPath id="clip0_18_4514">
<rect width="44.8833" height="36.2216" fill="white" transform="translate(30.8655 39.9568) rotate(-6.16081)"/>
</clipPath>
</defs>
</svg>
