<svg width="90" height="77" viewBox="0 0 90 77" fill="none" xmlns="http://www.w3.org/2000/svg">
<circle cx="41.9394" cy="41.7002" r="29.7003" fill="#E3D8F9"/>
<g clip-path="url(#clip0_2012_104)">
<path d="M73.7743 18.8884L32.0445 21.9923C30.2864 22.123 28.7783 23.2175 28.1086 24.8482C27.439 26.479 27.7428 28.3175 28.9015 29.6459L38.053 40.1383L53.0887 32.5466C53.7806 32.1973 54.6248 32.475 54.9742 33.1669C55.3235 33.8588 55.0459 34.703 54.3539 35.0524L39.3182 42.644L42.3277 56.2374C42.7088 57.9586 44.0077 59.2946 45.7176 59.7239C47.4309 60.1541 49.2054 59.587 50.3525 58.2523L77.6257 26.5162C78.8675 25.0713 79.1054 23.1172 78.2467 21.4165C77.388 19.7158 75.6743 18.747 73.7743 18.8884Z" fill="#7454BD"/>
</g>
<line x1="9.55024" y1="48.1326" x2="29.3488" y2="38.1362" stroke="#7454BD" stroke-width="2.73088" stroke-linecap="round"/>
<line x1="18.9831" y1="49.8095" x2="31.9397" y2="43.2676" stroke="#E579E8" stroke-width="2.73088" stroke-linecap="round"/>
<line x1="27.5606" y1="51.918" x2="34.5305" y2="48.3989" stroke="#7454BD" stroke-width="2.73088" stroke-linecap="round"/>
<defs>
<clipPath id="clip0_2012_104">
<rect width="47.9037" height="47.9037" fill="white" transform="translate(24.689 21.6263) rotate(-26.7895)"/>
</clipPath>
</defs>
</svg>
