<svg width="90" height="32" viewBox="0 0 90 32" fill="none" xmlns="http://www.w3.org/2000/svg">
<rect width="90" height="32" rx="15.7918" fill="#080809"/>
<path d="M19.9785 22C17.8011 21.9866 16 17.2495 16 14.837C16 10.8962 18.7739 10.0334 19.8429 10.0334C20.3247 10.0334 20.8391 10.2351 21.2928 10.4135C21.6101 10.538 21.9383 10.6664 22.1208 10.6664C22.23 10.6664 22.4874 10.5571 22.7147 10.4613C23.1994 10.2556 23.8026 10 24.5049 10C24.5062 10 24.5079 10 24.5091 10C25.0336 10 26.6237 10.1227 27.5798 11.6528L27.8037 12.0114L27.4814 12.2706C27.021 12.6409 26.1809 13.3163 26.1809 14.6541C26.1809 16.2387 27.1323 16.848 27.5894 17.1411C27.7911 17.2705 28 17.4039 28 17.6956C28 17.8861 26.5735 21.9764 24.502 21.9764C23.9951 21.9764 23.6368 21.814 23.3208 21.6708C23.001 21.5258 22.7251 21.4009 22.2693 21.4009C22.0383 21.4009 21.7461 21.5173 21.4368 21.6409C21.0141 21.8091 20.5356 22 19.9927 22H19.9785Z" fill="white"/>
<path d="M24.9983 7C25.0572 8.81578 23.5396 10.0755 22.0238 9.99648C21.774 8.54743 23.5394 7 24.9983 7Z" fill="white"/>
<path d="M34.7245 12.0322H35.6687L34.3846 8.16571H33.284L32 12.0322H32.9441L33.133 11.4246H34.5357L34.7245 12.0322ZM33.3919 10.5961L33.8343 9.17652L34.2767 10.5961H33.3919Z" fill="white"/>
<path d="M37.5794 9.27043L37.0183 11.0214L36.4572 9.27043H35.5616L36.5597 12.0322H37.4768L38.4749 9.27043H37.5794Z" fill="white"/>
<path d="M40.6249 9.27043V9.53003C40.4469 9.32014 40.1825 9.1931 39.821 9.1931C39.1143 9.1931 38.5316 9.82831 38.5316 10.6513C38.5316 11.4743 39.1143 12.1096 39.821 12.1096C40.1825 12.1096 40.4469 11.9825 40.6249 11.7726V12.0322H41.4342V9.27043H40.6249ZM39.9829 11.3252C39.6106 11.3252 39.3409 11.0656 39.3409 10.6513C39.3409 10.2371 39.6106 9.97745 39.9829 9.97745C40.3552 9.97745 40.6249 10.2371 40.6249 10.6513C40.6249 11.0656 40.3552 11.3252 39.9829 11.3252Z" fill="white"/>
<path d="M42.0279 12.0322H42.8371V8H42.0279V12.0322Z" fill="white"/>
<path d="M43.834 9.02739C44.0983 9.02739 44.3195 8.80092 44.3195 8.53026C44.3195 8.25961 44.0983 8.03314 43.834 8.03314C43.5696 8.03314 43.3484 8.25961 43.3484 8.53026C43.3484 8.80092 43.5696 9.02739 43.834 9.02739ZM43.4293 12.0322H44.2386V9.27043H43.4293V12.0322Z" fill="white"/>
<path d="M46.4439 9.1931C46.0825 9.1931 45.8181 9.32014 45.6401 9.53003V8.16571H44.8308V12.0322H45.6401V11.7726C45.8181 11.9825 46.0825 12.1096 46.4439 12.1096C47.1507 12.1096 47.7333 11.4743 47.7333 10.6513C47.7333 9.82831 47.1507 9.1931 46.4439 9.1931ZM46.2821 11.3252C45.9098 11.3252 45.6401 11.0656 45.6401 10.6513C45.6401 10.2371 45.9098 9.97745 46.2821 9.97745C46.6543 9.97745 46.9241 10.2371 46.9241 10.6513C46.9241 11.0656 46.6543 11.3252 46.2821 11.3252Z" fill="white"/>
<path d="M48.1922 12.0322H49.0014V8H48.1922V12.0322Z" fill="white"/>
<path d="M50.3166 10.9827H52.2318C52.2534 10.8778 52.2642 10.7673 52.2642 10.6513C52.2642 9.81726 51.6815 9.1931 50.8939 9.1931C50.0414 9.1931 49.4588 9.82831 49.4588 10.6513C49.4588 11.4743 50.0306 12.1096 50.9532 12.1096C51.4657 12.1096 51.865 11.9162 52.1293 11.5406L51.4819 11.1595C51.374 11.281 51.1852 11.3694 50.964 11.3694C50.6673 11.3694 50.4191 11.27 50.3166 10.9827ZM50.3004 10.3641C50.3759 10.0824 50.5809 9.92773 50.8885 9.92773C51.1312 9.92773 51.374 10.0437 51.4603 10.3641H50.3004Z" fill="white"/>
<path d="M55.3668 12.1096C56.1599 12.1096 56.7965 11.4743 56.7965 10.6513C56.7965 9.82831 56.1599 9.1931 55.3668 9.1931C54.5737 9.1931 53.9371 9.82831 53.9371 10.6513C53.9371 11.4743 54.5737 12.1096 55.3668 12.1096ZM55.3668 11.3031C55.0161 11.3031 54.7464 11.0435 54.7464 10.6513C54.7464 10.2591 55.0161 9.99954 55.3668 9.99954C55.7175 9.99954 55.9872 10.2591 55.9872 10.6513C55.9872 11.0435 55.7175 11.3031 55.3668 11.3031Z" fill="white"/>
<path d="M58.835 9.1931C58.4789 9.1931 58.2091 9.32566 58.0635 9.53003V9.27043H57.2542V12.0322H58.0635V10.5243C58.0635 10.1321 58.2685 9.95535 58.5652 9.95535C58.8242 9.95535 59.0346 10.1155 59.0346 10.458V12.0322H59.8439V10.3365C59.8439 9.59079 59.3799 9.1931 58.835 9.1931Z" fill="white"/>
<path d="M63.3291 10.0658V9.27043H62.7734V8.49712L61.9642 8.74568V9.27043H61.5326V10.0658H61.9642V11.0435C61.9642 11.8168 62.2717 12.1427 63.3291 12.0322V11.281C62.973 11.3031 62.7734 11.281 62.7734 11.0435V10.0658H63.3291Z" fill="white"/>
<path d="M65.3681 9.1931C65.012 9.1931 64.7422 9.32566 64.5966 9.53003V8.16571H63.7873V12.0322H64.5966V10.5243C64.5966 10.1321 64.8016 9.95535 65.0983 9.95535C65.3573 9.95535 65.5677 10.1155 65.5677 10.458V12.0322H66.377V10.3365C66.377 9.59079 65.913 9.1931 65.3681 9.1931Z" fill="white"/>
<path d="M67.6556 10.9827H69.5709C69.5925 10.8778 69.6033 10.7673 69.6033 10.6513C69.6033 9.81726 69.0206 9.1931 68.2329 9.1931C67.3805 9.1931 66.7978 9.82831 66.7978 10.6513C66.7978 11.4743 67.3697 12.1096 68.2922 12.1096C68.8048 12.1096 69.204 11.9162 69.4684 11.5406L68.821 11.1595C68.7131 11.281 68.5242 11.3694 68.303 11.3694C68.0063 11.3694 67.7581 11.27 67.6556 10.9827ZM67.6394 10.3641C67.715 10.0824 67.92 9.92773 68.2275 9.92773C68.4703 9.92773 68.7131 10.0437 68.7994 10.3641H67.6394Z" fill="white"/>
<path d="M36.5409 22.1588H38.1144L35.9744 15.7146H34.14L32 22.1588H33.5736L33.8883 21.1461H36.2261L36.5409 22.1588ZM34.3199 19.7652L35.0572 17.3993L35.7945 19.7652H34.3199Z" fill="white"/>
<path d="M41.2947 17.4269C40.6923 17.4269 40.2517 17.6387 39.9549 17.9885V17.5558H38.6062V24H39.9549V21.7261C40.2517 22.0759 40.6923 22.2877 41.2947 22.2877C42.4726 22.2877 43.4437 21.229 43.4437 19.8573C43.4437 18.4856 42.4726 17.4269 41.2947 17.4269ZM41.0249 20.9804C40.4045 20.9804 39.9549 20.5478 39.9549 19.8573C39.9549 19.1669 40.4045 18.7342 41.0249 18.7342C41.6454 18.7342 42.095 19.1669 42.095 19.8573C42.095 20.5478 41.6454 20.9804 41.0249 20.9804Z" fill="white"/>
<path d="M46.897 17.4269C46.2946 17.4269 45.854 17.6387 45.5572 17.9885V17.5558H44.2085V24H45.5572V21.7261C45.854 22.0759 46.2946 22.2877 46.897 22.2877C48.0749 22.2877 49.046 21.229 49.046 19.8573C49.046 18.4856 48.0749 17.4269 46.897 17.4269ZM46.6273 20.9804C46.0068 20.9804 45.5572 20.5478 45.5572 19.8573C45.5572 19.1669 46.0068 18.7342 46.6273 18.7342C47.2477 18.7342 47.6973 19.1669 47.6973 19.8573C47.6973 20.5478 47.2477 20.9804 46.6273 20.9804Z" fill="white"/>
<path d="M49.8108 22.1588H51.1595V15.4384H49.8108V22.1588Z" fill="white"/>
<path d="M53.3514 20.4097H56.5435C56.5795 20.2348 56.5975 20.0506 56.5975 19.8573C56.5975 18.4672 55.6264 17.4269 54.3136 17.4269C52.8928 17.4269 51.9217 18.4856 51.9217 19.8573C51.9217 21.229 52.8749 22.2877 54.4125 22.2877C55.2667 22.2877 55.9321 21.9655 56.3727 21.3395L55.2937 20.7043C55.1138 20.9068 54.7991 21.0541 54.4304 21.0541C53.9359 21.0541 53.5223 20.8884 53.3514 20.4097ZM53.3245 19.3786C53.4503 18.9091 53.792 18.6513 54.3046 18.6513C54.7092 18.6513 55.1138 18.8446 55.2577 19.3786H53.3245Z" fill="white"/>
<path d="M61.8584 22.2877C63.2251 22.2877 64.1962 21.5512 64.1962 20.3084C64.1962 18.9459 63.1262 18.6053 62.1731 18.3107C61.193 18.0069 61.0401 17.8044 61.0401 17.5098C61.0401 17.252 61.2649 17.0219 61.7145 17.0219C62.29 17.0219 62.5867 17.3072 62.8025 17.7675L64.0164 17.0403C63.5578 16.0921 62.7486 15.5857 61.7145 15.5857C60.6265 15.5857 59.6014 16.3038 59.6014 17.5466C59.6014 18.7802 60.5186 19.2405 61.4537 19.5075C62.3979 19.7745 62.7575 19.931 62.7575 20.3268C62.7575 20.5754 62.5867 20.8516 61.9033 20.8516C61.193 20.8516 60.8063 20.4925 60.5815 19.9586L59.3407 20.6951C59.6913 21.6433 60.5366 22.2877 61.8584 22.2877Z" fill="white"/>
<path d="M67.3731 18.8815V17.5558H66.447V16.267L65.0982 16.6812V17.5558H64.3789V18.8815H65.0982V20.5109C65.0982 21.7998 65.6108 22.3429 67.3731 22.1588V20.9068C66.7797 20.9436 66.447 20.9068 66.447 20.5109V18.8815H67.3731Z" fill="white"/>
<path d="M70.207 22.2877C71.5288 22.2877 72.5899 21.229 72.5899 19.8573C72.5899 18.4856 71.5288 17.4269 70.207 17.4269C68.8852 17.4269 67.8242 18.4856 67.8242 19.8573C67.8242 21.229 68.8852 22.2877 70.207 22.2877ZM70.207 20.9436C69.6226 20.9436 69.173 20.5109 69.173 19.8573C69.173 19.2037 69.6226 18.771 70.207 18.771C70.7915 18.771 71.2411 19.2037 71.2411 19.8573C71.2411 20.5109 70.7915 20.9436 70.207 20.9436Z" fill="white"/>
<path d="M74.7015 18.3751V17.5558H73.3528V22.1588H74.7015V20.0782C74.7015 19.1669 75.4928 18.9367 76.0503 19.0288V17.4638C75.4838 17.4638 74.8814 17.7583 74.7015 18.3751Z" fill="white"/>
<path d="M77.754 20.4097H80.946C80.982 20.2348 81 20.0506 81 19.8573C81 18.4672 80.0289 17.4269 78.7161 17.4269C77.2954 17.4269 76.3243 18.4856 76.3243 19.8573C76.3243 21.229 77.2774 22.2877 78.815 22.2877C79.6692 22.2877 80.3346 21.9655 80.7752 21.3395L79.6962 20.7043C79.5164 20.9068 79.2016 21.0541 78.833 21.0541C78.3384 21.0541 77.9248 20.8884 77.754 20.4097ZM77.727 19.3786C77.8529 18.9091 78.1946 18.6513 78.7071 18.6513C79.1117 18.6513 79.5164 18.8446 79.6602 19.3786H77.727Z" fill="white"/>
</svg>
