<svg width="44" height="39" viewBox="0 0 44 39" fill="none" xmlns="http://www.w3.org/2000/svg">
<g clip-path="url(#clip0_18_4422)">
<path d="M36.3485 9.38328L15.5793 10.9281C14.7043 10.9932 13.9538 11.5379 13.6204 12.3495C13.2872 13.1612 13.4384 14.0762 14.0151 14.7374L18.5698 19.9595L26.0532 16.181C26.3975 16.0072 26.8177 16.1454 26.9916 16.4898C27.1655 16.8341 27.0273 17.2543 26.6829 17.4282L19.1995 21.2066L20.6974 27.9721C20.887 28.8287 21.5335 29.4937 22.3845 29.7073C23.2372 29.9214 24.1205 29.6392 24.6913 28.9749L38.2654 13.1797C38.8834 12.4605 39.0018 11.488 38.5744 10.6415C38.1471 9.79507 37.2941 9.31287 36.3485 9.38328Z" fill="#7454BD"/>
</g>
<line x1="4.68699" y1="23.0168" x2="13.3164" y2="18.6598" stroke="#7454BD" stroke-width="2.73088" stroke-linecap="round"/>
<line x1="9.38172" y1="23.8514" x2="14.6058" y2="21.2138" stroke="#E579E8" stroke-width="2.73088" stroke-linecap="round"/>
<line x1="13.6509" y1="24.9009" x2="15.8954" y2="23.7676" stroke="#7454BD" stroke-width="2.73088" stroke-linecap="round"/>
<defs>
<clipPath id="clip0_18_4422">
<rect width="23.842" height="23.842" fill="white" transform="translate(11.9185 10.7459) rotate(-26.7895)"/>
</clipPath>
</defs>
</svg>
