<svg width="21" height="29" viewBox="0 0 21 29" fill="none" xmlns="http://www.w3.org/2000/svg">
<path d="M19.574 0.293716H3.68427C1.66232 0.293716 0.0163881 1.93671 0.0151503 3.95628L0.00243029 24.7108C0.00108003 26.9139 1.79447 28.7063 4.00021 28.7063H19.5566C20.0476 28.7063 20.4458 28.3087 20.4461 27.8184C20.4464 27.3281 20.0487 26.9305 19.5577 26.9305H4.00129C2.77589 26.9305 1.77956 25.9347 1.78031 24.7108C1.78106 23.4868 2.77861 22.491 4.00401 22.491H19.5604C20.0514 22.491 20.4496 22.0935 20.4499 21.6031L20.4624 1.18161C20.4627 0.691271 20.065 0.293716 19.574 0.293716ZM1.78264 20.9057L1.79303 3.95628C1.79367 2.91422 2.6399 2.0695 3.68318 2.0695H3.73874C3.89213 2.0695 4.01645 2.19375 4.01636 2.34697L4.00527 20.4469C4.00518 20.592 3.89326 20.7141 3.74831 20.7234C3.18798 20.7591 2.65863 20.9106 2.18395 21.154C2.00039 21.2482 1.78251 21.1116 1.78264 20.9057Z" fill="#7454BD"/>
<path d="M19.5593 23.8228H4.00283C3.51186 23.8228 3.11365 24.2204 3.11335 24.7107C3.11305 25.2011 3.51077 25.5986 4.00174 25.5986H19.5582C20.0491 25.5986 20.4473 25.2011 20.4477 24.7107C20.448 24.2204 20.0502 23.8228 19.5593 23.8228Z" fill="#E579E8"/>
</svg>
