<svg width="30" height="23" viewBox="0 0 30 23" fill="none" xmlns="http://www.w3.org/2000/svg">
<path d="M4.5 9.75C6.15469 9.75 7.5 8.29258 7.5 6.5C7.5 4.70742 6.15469 3.25 4.5 3.25C2.84531 3.25 1.5 4.70742 1.5 6.5C1.5 8.29258 2.84531 9.75 4.5 9.75ZM25.5 9.75C27.1547 9.75 28.5 8.29258 28.5 6.5C28.5 4.70742 27.1547 3.25 25.5 3.25C23.8453 3.25 22.5 4.70742 22.5 6.5C22.5 8.29258 23.8453 9.75 25.5 9.75ZM27 11.375H24C23.175 11.375 22.4297 11.7355 21.8859 12.3195C23.775 13.4418 25.1156 15.468 25.4062 17.875H28.5C29.3297 17.875 30 17.1488 30 16.25V14.625C30 12.8324 28.6547 11.375 27 11.375ZM15 11.375C17.9016 11.375 20.25 8.83086 20.25 5.6875C20.25 2.54414 17.9016 0 15 0C12.0984 0 9.75 2.54414 9.75 5.6875C9.75 8.83086 12.0984 11.375 15 11.375ZM18.6 13H18.2109C17.2359 13.5078 16.1531 13.8125 15 13.8125C13.8469 13.8125 12.7688 13.5078 11.7891 13H11.4C8.41875 13 6 15.6203 6 18.85V20.3125C6 21.6582 7.00781 22.75 8.25 22.75H21.75C22.9922 22.75 24 21.6582 24 20.3125V18.85C24 15.6203 21.5812 13 18.6 13ZM8.11406 12.3195C7.57031 11.7355 6.825 11.375 6 11.375H3C1.34531 11.375 0 12.8324 0 14.625V16.25C0 17.1488 0.670312 17.875 1.5 17.875H4.58906C4.88438 15.468 6.225 13.4418 8.11406 12.3195Z" fill="#7454BD"/>
</svg>
