<svg width="97" height="32" viewBox="0 0 97 32" fill="none" xmlns="http://www.w3.org/2000/svg">
<rect width="97" height="32" rx="15.7918" fill="#080809"/>
<path d="M26 14.5L16.6903 23C16.2543 22.7175 15.9955 22.2476 16.0001 21.747V7.25304C15.9955 6.75239 16.2543 6.2825 16.6903 6L26 14.5Z" fill="#2196F3"/>
<path d="M28 11.9602L24.8895 15L16 6.29743C16.0335 6.27104 16.0684 6.24648 16.1045 6.22388C16.5743 5.93439 17.1611 5.92504 17.6397 6.19937L28 11.9602Z" fill="#4CAF50"/>
<path d="M31.9999 15C32.0058 15.5711 31.6912 16.0986 31.1822 16.371L28.1647 18L25 15L28.1647 12L31.1822 13.629C31.6912 13.9014 32.0058 14.4289 31.9999 15Z" fill="#F0BB1F"/>
<path d="M28 18.0408L17.6397 23.8037C17.1601 24.0739 16.5755 24.0646 16.1045 23.7792C16.0684 23.7566 16.0335 23.7321 16 23.7057L24.8895 15L28 18.0408Z" fill="#F15A2B"/>
<path d="M43.2836 10.4519H40.7185V11.5114H42.0851C41.9024 12.0184 41.4566 12.3286 40.777 12.3286C39.7831 12.3286 39.1693 11.6703 39.1693 10.7697C39.1693 9.83892 39.8123 9.18054 40.6747 9.18054C41.252 9.18054 41.7124 9.45297 41.9243 9.80108L42.9182 9.21081C42.487 8.49946 41.6612 8 40.682 8C39.1766 8 38 9.22595 38 10.7622C38 12.2832 39.1546 13.5092 40.7624 13.5092C42.1947 13.5092 43.2836 12.5254 43.2836 10.9059V10.4519Z" fill="white"/>
<path d="M44.7466 12.2378V11.2995H46.5736V10.1492H44.7466V9.27135H46.7563V8.10595H43.5774V13.4032H46.7928V12.2378H44.7466Z" fill="white"/>
<path d="M50.5218 8.10595H46.7218V9.27135H48.0372V13.4032H49.2064V9.27135H50.5218V8.10595Z" fill="white"/>
<path d="M52.1299 8.10595V13.4032H53.2991V8.10595H52.1299Z" fill="white"/>
<path d="M57.2474 8.10595H53.4473V9.27135H54.7627V13.4032H55.9319V9.27135H57.2474V8.10595Z" fill="white"/>
<path d="M61.2962 13.5092C62.7651 13.5092 63.9563 12.3135 63.9563 10.7546C63.9563 9.19568 62.7651 8 61.2962 8C59.8273 8 58.6361 9.19568 58.6361 10.7546C58.6361 12.3135 59.8273 13.5092 61.2962 13.5092ZM61.2962 12.3286C60.4631 12.3286 59.8054 11.7005 59.8054 10.7546C59.8054 9.80865 60.4631 9.18054 61.2962 9.18054C62.1293 9.18054 62.787 9.80865 62.787 10.7546C62.787 11.7005 62.1293 12.3286 61.2962 12.3286Z" fill="white"/>
<path d="M67.0993 8.10595V10.9816L65.1261 8.10595H64.2492V13.4032H65.4185V10.5276L67.3916 13.4032H68.2685V8.10595H67.0993Z" fill="white"/>
<path d="M43.2836 19.4497V19.6541C43.2836 20.315 43.057 20.8724 42.604 21.3265C42.1509 21.7755 41.5541 22 40.8135 22C40.034 22 39.3909 21.7377 38.8843 21.213C38.3776 20.6832 38.1242 20.035 38.1242 19.2681C38.1242 18.5013 38.3751 17.8555 38.8769 17.3308C39.3787 16.8011 40.0145 16.5362 40.7843 16.5362C41.252 16.5362 41.6807 16.6523 42.0705 16.8843C42.4651 17.1164 42.7696 17.4267 42.984 17.8151L42.6405 18.027C42.47 17.6941 42.2166 17.4267 41.8805 17.2249C41.5492 17.0231 41.1838 16.9222 40.7843 16.9222C40.1217 16.9222 39.5761 17.1492 39.1473 17.6032C38.7235 18.0523 38.5116 18.6072 38.5116 19.2681C38.5116 19.929 38.7259 20.4865 39.1546 20.9405C39.5834 21.3895 40.1363 21.6141 40.8135 21.6141C41.4128 21.6141 41.8975 21.445 42.2678 21.107C42.6381 20.769 42.8451 20.3427 42.889 19.8281H40.7185V19.4497H43.2836Z" fill="white"/>
<path d="M48.4709 21.2054C47.9594 21.7351 47.3358 22 46.6001 22C45.8644 22 45.2408 21.7351 44.7293 21.2054C44.2177 20.6706 43.962 20.0249 43.962 19.2681C43.962 18.5114 44.2177 17.8681 44.7293 17.3384C45.2408 16.8036 45.8644 16.5362 46.6001 16.5362C47.3358 16.5362 47.9594 16.8036 48.4709 17.3384C48.9825 17.8681 49.2382 18.5114 49.2382 19.2681C49.2382 20.0249 48.9825 20.6706 48.4709 21.2054ZM44.9997 20.933C45.4381 21.387 45.9716 21.6141 46.6001 21.6141C47.2286 21.6141 47.7596 21.387 48.1932 20.933C48.6317 20.4739 48.8509 19.9189 48.8509 19.2681C48.8509 18.6173 48.6317 18.0649 48.1932 17.6108C47.7596 17.1517 47.2286 16.9222 46.6001 16.9222C45.9716 16.9222 45.4381 17.1517 44.9997 17.6108C44.5661 18.0649 44.3493 18.6173 44.3493 19.2681C44.3493 19.9189 44.5661 20.4739 44.9997 20.933Z" fill="white"/>
<path d="M54.4371 21.2054C53.9255 21.7351 53.3019 22 52.5663 22C51.8306 22 51.207 21.7351 50.6955 21.2054C50.1839 20.6706 49.9281 20.0249 49.9281 19.2681C49.9281 18.5114 50.1839 17.8681 50.6955 17.3384C51.207 16.8036 51.8306 16.5362 52.5663 16.5362C53.3019 16.5362 53.9255 16.8036 54.4371 17.3384C54.9486 17.8681 55.2044 18.5114 55.2044 19.2681C55.2044 20.0249 54.9486 20.6706 54.4371 21.2054ZM50.9659 20.933C51.4043 21.387 51.9378 21.6141 52.5663 21.6141C53.1948 21.6141 53.7258 21.387 54.1594 20.933C54.5979 20.4739 54.8171 19.9189 54.8171 19.2681C54.8171 18.6173 54.5979 18.0649 54.1594 17.6108C53.7258 17.1517 53.1948 16.9222 52.5663 16.9222C51.9378 16.9222 51.4043 17.1517 50.9659 17.6108C50.5323 18.0649 50.3155 18.6173 50.3155 19.2681C50.3155 19.9189 50.5323 20.4739 50.9659 20.933Z" fill="white"/>
<path d="M61.0537 19.4497V19.6541C61.0537 20.315 60.8271 20.8724 60.374 21.3265C59.921 21.7755 59.3241 22 58.5836 22C57.8041 22 57.161 21.7377 56.6543 21.213C56.1477 20.6832 55.8943 20.035 55.8943 19.2681C55.8943 18.5013 56.1452 17.8555 56.647 17.3308C57.1488 16.8011 57.7846 16.5362 58.5544 16.5362C59.0221 16.5362 59.4508 16.6523 59.8406 16.8843C60.2352 17.1164 60.5397 17.4267 60.754 17.8151L60.4106 18.027C60.2401 17.6941 59.9867 17.4267 59.6506 17.2249C59.3193 17.0231 58.9539 16.9222 58.5544 16.9222C57.8918 16.9222 57.3462 17.1492 56.9174 17.6032C56.4936 18.0523 56.2816 18.6072 56.2816 19.2681C56.2816 19.929 56.496 20.4865 56.9247 20.9405C57.3535 21.3895 57.9064 21.6141 58.5836 21.6141C59.1829 21.6141 59.6676 21.445 60.0379 21.107C60.4081 20.769 60.6152 20.3427 60.659 19.8281H58.4886V19.4497H61.0537Z" fill="white"/>
<path d="M62.4117 21.5384H64.8233V21.9168H62.0244V16.6195H62.4117V21.5384Z" fill="white"/>
<path d="M66.0156 21.5384H68.5734V21.9168H65.6283V16.6195H68.5369V16.9978H66.0156V19.0562H68.3542V19.4346H66.0156V21.5384Z" fill="white"/>
<path d="M73.2125 16.6195C73.6704 16.6195 74.0504 16.7759 74.3525 17.0886C74.6546 17.4014 74.8056 17.7924 74.8056 18.2616C74.8056 18.7308 74.6546 19.1218 74.3525 19.4346C74.0504 19.7423 73.6704 19.8962 73.2125 19.8962H71.8605V21.9168H71.4732V16.6195H73.2125ZM73.2125 19.5178C73.5632 19.5178 73.8507 19.3993 74.0748 19.1622C74.3038 18.925 74.4183 18.6249 74.4183 18.2616C74.4183 17.8933 74.3038 17.5906 74.0748 17.3535C73.8507 17.1164 73.5632 16.9978 73.2125 16.9978H71.8605V19.5178H73.2125Z" fill="white"/>
<path d="M76.1496 21.5384H78.5612V21.9168H75.7623V16.6195H76.1496V21.5384Z" fill="white"/>
<path d="M82.951 21.9168L82.4541 20.5697H79.889L79.3921 21.9168H78.9828L80.9706 16.6195H81.3798L83.3602 21.9168H82.951ZM80.0352 20.1914H82.3152L81.1752 17.1114L80.0352 20.1914Z" fill="white"/>
<path d="M87 16.6195L85.1365 19.7373V21.9168H84.7492V19.7373L82.8857 16.6195H83.3241L84.9465 19.3514L86.5615 16.6195H87Z" fill="white"/>
</svg>
