<svg width="183" height="44" viewBox="0 0 183 44" fill="none" xmlns="http://www.w3.org/2000/svg">
<path d="M24.0003 33.5327C24.0003 35.0524 22.7523 36.5099 20.5316 37.5845C18.3107 38.6591 15.2983 39.2632 12.1575 39.2632C9.01696 39.2631 6.00523 38.659 3.78448 37.5845C1.56366 36.5099 0.315735 35.0524 0.315735 33.5327H24.0003ZM14.5267 28.9487H0.315735V24.3647H14.5267V28.9487ZM27.553 28.9487H20.4476V24.3647H27.553V28.9487ZM7.4212 18.6353H0.315735V14.0513H7.4212V18.6353ZM27.553 18.6353H13.3421V14.0513H27.553V18.6353ZM12.1575 3.73682C15.2983 3.73682 18.3107 4.34093 20.5316 5.41553C22.7522 6.49011 24.0003 7.94763 24.0003 9.46729H0.315735C0.315735 7.94758 1.56366 6.49012 3.78448 5.41553C6.00523 4.34099 9.01695 3.73686 12.1575 3.73682Z" fill="white" fill-opacity="0.78"/>
<path d="M48.9323 34.5248C47.41 34.5248 46.0475 34.1337 44.8448 33.3516C43.6421 32.5694 42.6917 31.4339 41.9936 29.9453C41.2955 28.4566 40.9465 26.6483 40.9465 24.5204C40.9465 22.3673 41.2997 20.5506 42.0062 19.0704C42.7211 17.5817 43.6841 16.4589 44.8952 15.7019C46.1064 14.9366 47.4563 14.5539 48.9449 14.5539C50.0804 14.5539 51.0139 14.7473 51.7457 15.1342C52.4774 15.5127 53.0577 15.9711 53.4867 16.5094C53.9156 17.0392 54.2478 17.5397 54.4833 18.0106H54.6725V8.34688H59.2521V34.1842H54.7609V31.1312H54.4833C54.2478 31.6022 53.9072 32.1026 53.4614 32.6325C53.0157 33.1539 52.4269 33.5997 51.6952 33.9697C50.9635 34.3398 50.0425 34.5248 48.9323 34.5248ZM50.2065 30.7779C51.1737 30.7779 51.998 30.5172 52.6792 29.9957C53.3605 29.4659 53.8777 28.7299 54.231 27.788C54.5842 26.846 54.7609 25.7484 54.7609 24.4952C54.7609 23.242 54.5842 22.1529 54.231 21.2277C53.8862 20.3025 53.3731 19.5834 52.6919 19.0704C52.019 18.5573 51.1906 18.3008 50.2065 18.3008C49.1888 18.3008 48.3394 18.5657 47.6581 19.0956C46.9769 19.6255 46.4638 20.3572 46.119 21.2908C45.7741 22.2243 45.6017 23.2925 45.6017 24.4952C45.6017 25.7063 45.7741 26.7871 46.119 27.7375C46.4722 28.6795 46.9895 29.4238 47.6707 29.9705C48.3604 30.5088 49.2057 30.7779 50.2065 30.7779ZM72.6975 34.5627C70.7546 34.5627 69.0767 34.159 67.6637 33.3516C66.2592 32.5357 65.1784 31.3835 64.4215 29.8948C63.6645 28.3977 63.286 26.6357 63.286 24.6088C63.286 22.6154 63.6645 20.866 64.4215 19.3605C65.1868 17.8466 66.255 16.6692 67.6259 15.8281C68.9968 14.9786 70.6075 14.5539 72.4578 14.5539C73.6521 14.5539 74.7791 14.7473 75.8388 15.1342C76.907 15.5127 77.849 16.1014 78.6648 16.9004C79.489 17.6995 80.1366 18.7171 80.6076 19.9535C81.0786 21.1814 81.3141 22.6449 81.3141 24.3438V25.7442H65.4307V22.6659H76.9364C76.928 21.7912 76.7388 21.0132 76.3687 20.332C75.9986 19.6423 75.4814 19.0998 74.817 18.7045C74.1609 18.3092 73.3956 18.1116 72.5209 18.1116C71.5873 18.1116 70.7673 18.3387 70.0608 18.7928C69.3543 19.2386 68.8034 19.8273 68.4081 20.5591C68.0212 21.2824 67.8235 22.0772 67.8151 22.9435V25.6306C67.8151 26.7577 68.0212 27.7249 68.4333 28.5323C68.8454 29.3313 69.4216 29.9453 70.1617 30.3742C70.9018 30.7947 71.7681 31.005 72.7606 31.005C73.425 31.005 74.0264 30.9125 74.5646 30.7275C75.1029 30.534 75.5697 30.2523 75.965 29.8822C76.3603 29.5121 76.6589 29.0537 76.8607 28.5071L81.1249 28.9865C80.8558 30.1135 80.3427 31.0975 79.5858 31.9386C78.8372 32.7712 77.8784 33.4188 76.7093 33.8814C75.5403 34.3356 74.203 34.5627 72.6975 34.5627ZM100.493 19.9283L96.3302 20.3824C96.2124 19.9619 96.0064 19.5666 95.712 19.1965C95.426 18.8265 95.0392 18.5279 94.5513 18.3008C94.0635 18.0737 93.4664 17.9602 92.7599 17.9602C91.8095 17.9602 91.0105 18.1662 90.3629 18.5784C89.7237 18.9905 89.4083 19.5246 89.4167 20.1806C89.4083 20.7441 89.6143 21.2025 90.0349 21.5557C90.4638 21.909 91.1703 22.1991 92.1543 22.4262L95.4597 23.1327C97.2932 23.528 98.6557 24.1546 99.5472 25.0125C100.447 25.8703 100.901 26.9932 100.91 28.3809C100.901 29.6004 100.544 30.677 99.8374 31.6106C99.1393 32.5357 98.1679 33.259 96.9231 33.7805C95.6784 34.302 94.2486 34.5627 92.6337 34.5627C90.2619 34.5627 88.3527 34.0665 86.9061 33.074C85.4595 32.0731 84.5974 30.6812 84.3199 28.8982L88.7733 28.4692C88.9751 29.3439 89.4041 30.0041 90.0601 30.4499C90.7161 30.8957 91.5698 31.1185 92.6211 31.1185C93.7061 31.1185 94.5766 30.8957 95.2326 30.4499C95.897 30.0041 96.2293 29.4532 96.2293 28.7972C96.2293 28.2421 96.0148 27.7837 95.5858 27.4221C95.1653 27.0604 94.5093 26.7829 93.6178 26.5894L90.3124 25.8956C88.4537 25.5087 87.0785 24.8569 86.187 23.9401C85.2955 23.0149 84.8539 21.8459 84.8623 20.4329C84.8539 19.2386 85.1777 18.2041 85.8338 17.3294C86.4982 16.4463 87.4192 15.765 88.5966 15.2856C89.7825 14.7978 91.1493 14.5539 92.6968 14.5539C94.9677 14.5539 96.7549 15.0375 98.0586 16.0047C99.3706 16.9719 100.182 18.2798 100.493 19.9283ZM113.128 34.5627C111.194 34.5627 109.533 34.1379 108.145 33.2885C106.766 32.439 105.702 31.2657 104.953 29.7686C104.213 28.2632 103.843 26.5306 103.843 24.5709C103.843 22.6028 104.221 20.866 104.978 19.3605C105.735 17.8466 106.803 16.6692 108.183 15.8281C109.571 14.9786 111.211 14.5539 113.103 14.5539C114.676 14.5539 116.068 14.8441 117.279 15.4244C118.498 15.9963 119.47 16.8079 120.193 17.8593C120.916 18.9022 121.329 20.1217 121.429 21.5179H117.064C116.888 20.5843 116.467 19.8063 115.803 19.1839C115.147 18.5531 114.268 18.2377 113.166 18.2377C112.232 18.2377 111.412 18.49 110.706 18.9947C109.999 19.4909 109.449 20.2058 109.053 21.1394C108.666 22.073 108.473 23.1916 108.473 24.4952C108.473 25.8157 108.666 26.9511 109.053 27.9015C109.44 28.8435 109.983 29.571 110.681 30.084C111.387 30.5887 112.216 30.841 113.166 30.841C113.839 30.841 114.44 30.7148 114.97 30.4625C115.508 30.2018 115.958 29.8275 116.32 29.3397C116.682 28.8519 116.93 28.2589 117.064 27.5609H121.429C121.32 28.9318 120.916 30.1471 120.218 31.2069C119.52 32.2582 118.57 33.0824 117.367 33.6796C116.164 34.2683 114.751 34.5627 113.128 34.5627ZM125.18 34.1842V14.8062H129.608V18.0359H129.81C130.163 16.9173 130.768 16.0552 131.626 15.4496C132.493 14.8356 133.481 14.5287 134.591 14.5287C134.843 14.5287 135.125 14.5413 135.436 14.5665C135.756 14.5833 136.021 14.6128 136.231 14.6548V18.8559C136.038 18.7886 135.731 18.7298 135.31 18.6793C134.898 18.6204 134.498 18.591 134.112 18.591C133.279 18.591 132.53 18.7718 131.866 19.1335C131.21 19.4867 130.693 19.9787 130.314 20.6095C129.936 21.2403 129.746 21.9678 129.746 22.7921V34.1842H125.18ZM139.265 34.1842V14.8062H143.832V34.1842H139.265ZM141.561 12.056C140.838 12.056 140.216 11.8162 139.694 11.3368C139.173 10.849 138.912 10.2645 138.912 9.58324C138.912 8.89357 139.173 8.30903 139.694 7.82963C140.216 7.34182 140.838 7.09791 141.561 7.09791C142.293 7.09791 142.915 7.34182 143.428 7.82963C143.95 8.30903 144.211 8.89357 144.211 9.58324C144.211 10.2645 143.95 10.849 143.428 11.3368C142.915 11.8162 142.293 12.056 141.561 12.056ZM148.528 41.451V14.8062H153.02V18.0106H153.285C153.52 17.5397 153.852 17.0392 154.281 16.5094C154.71 15.9711 155.29 15.5127 156.022 15.1342C156.754 14.7473 157.688 14.5539 158.823 14.5539C160.32 14.5539 161.67 14.9366 162.873 15.7019C164.084 16.4589 165.043 17.5817 165.749 19.0704C166.464 20.5506 166.821 22.3673 166.821 24.5204C166.821 26.6483 166.472 28.4566 165.774 29.9453C165.076 31.4339 164.126 32.5694 162.923 33.3516C161.72 34.1337 160.358 34.5248 158.836 34.5248C157.725 34.5248 156.804 34.3398 156.073 33.9697C155.341 33.5997 154.752 33.1539 154.306 32.6325C153.869 32.1026 153.528 31.6022 153.285 31.1312H153.095V41.451H148.528ZM153.007 24.4952C153.007 25.7484 153.184 26.846 153.537 27.788C153.899 28.7299 154.416 29.4659 155.089 29.9957C155.77 30.5172 156.594 30.7779 157.561 30.7779C158.571 30.7779 159.416 30.5088 160.097 29.9705C160.778 29.4238 161.291 28.6795 161.636 27.7375C161.99 26.7871 162.166 25.7063 162.166 24.4952C162.166 23.2925 161.994 22.2243 161.649 21.2908C161.304 20.3572 160.791 19.6255 160.11 19.0956C159.428 18.5657 158.579 18.3008 157.561 18.3008C156.586 18.3008 155.757 18.5573 155.076 19.0704C154.395 19.5834 153.878 20.3025 153.524 21.2277C153.179 22.1529 153.007 23.242 153.007 24.4952ZM180.409 14.8062V18.3387H169.269V14.8062H180.409ZM172.019 10.1636H176.586V28.3557C176.586 28.9696 176.679 29.4406 176.864 29.7686C177.057 30.0882 177.309 30.3069 177.621 30.4247C177.932 30.5424 178.277 30.6013 178.655 30.6013C178.941 30.6013 179.202 30.5803 179.437 30.5382C179.681 30.4962 179.866 30.4583 179.992 30.4247L180.762 33.995C180.518 34.0791 180.169 34.1716 179.715 34.2725C179.269 34.3734 178.722 34.4323 178.075 34.4491C176.931 34.4828 175.901 34.3104 174.984 33.9319C174.067 33.545 173.34 32.9478 172.801 32.1404C172.271 31.333 172.011 30.3237 172.019 29.1126V10.1636Z" fill="white" fill-opacity="0.78"/>
</svg>
