<svg width="214" height="46" viewBox="0 0 214 46" fill="none" xmlns="http://www.w3.org/2000/svg">
<path d="M71.2637 10.5311H75.9442V27.4111C75.9442 29.2615 75.5068 30.8889 74.6321 32.2935C73.7658 33.698 72.5463 34.7956 70.9735 35.5862C69.4007 36.3684 67.563 36.7595 65.4604 36.7595C63.3493 36.7595 61.5074 36.3684 59.9346 35.5862C58.3618 34.7956 57.1423 33.698 56.276 32.2935C55.4097 30.8889 54.9766 29.2615 54.9766 27.4111V10.5311H59.6571V27.02C59.6571 28.0966 59.8925 29.0554 60.3635 29.8965C60.8429 30.7375 61.5158 31.3978 62.3821 31.8772C63.2484 32.3481 64.2745 32.5836 65.4604 32.5836C66.6463 32.5836 67.6723 32.3481 68.5386 31.8772C69.4133 31.3978 70.0862 30.7375 70.5572 29.8965C71.0282 29.0554 71.2637 28.0966 71.2637 27.02V10.5311ZM85.3966 25.0141V36.3684H80.8297V16.9904H85.1947V20.2832H85.4218C85.8676 19.1982 86.5783 18.3361 87.5539 17.6969C88.538 17.0577 89.7533 16.7381 91.1999 16.7381C92.5372 16.7381 93.7021 17.0241 94.6945 17.596C95.6954 18.1679 96.4691 18.9963 97.0158 20.0813C97.5709 21.1663 97.8443 22.4825 97.8359 24.0301V36.3684H93.2689V24.7366C93.2689 23.4413 92.9325 22.4279 92.2596 21.6961C91.5952 20.9644 90.6742 20.5986 89.4968 20.5986C88.6978 20.5986 87.9871 20.7752 87.3647 21.1284C86.7507 21.4733 86.2671 21.9737 85.9139 22.6297C85.569 23.2857 85.3966 24.0805 85.3966 25.0141ZM117.794 22.1125L113.631 22.5666C113.513 22.1461 113.307 21.7508 113.013 21.3807C112.727 21.0107 112.34 20.7121 111.852 20.485C111.364 20.2579 110.767 20.1444 110.061 20.1444C109.11 20.1444 108.311 20.3504 107.664 20.7626C107.024 21.1747 106.709 21.7088 106.717 22.3648C106.709 22.9283 106.915 23.3867 107.336 23.7399C107.765 24.0932 108.471 24.3833 109.455 24.6104L112.76 25.3169C114.594 25.7122 115.956 26.3388 116.848 27.1967C117.748 28.0545 118.202 29.1774 118.211 30.5651C118.202 31.7846 117.845 32.8612 117.138 33.7948C116.44 34.7199 115.469 35.4432 114.224 35.9647C112.979 36.4862 111.549 36.7469 109.934 36.7469C107.563 36.7469 105.654 36.2507 104.207 35.2582C102.76 34.2574 101.898 32.8654 101.621 31.0824L106.074 30.6534C106.276 31.5281 106.705 32.1883 107.361 32.6341C108.017 33.0799 108.871 33.3027 109.922 33.3027C111.007 33.3027 111.877 33.0799 112.533 32.6341C113.198 32.1883 113.53 31.6375 113.53 30.9814C113.53 30.4263 113.316 29.968 112.887 29.6063C112.466 29.2446 111.81 28.9671 110.919 28.7736L107.613 28.0798C105.754 27.6929 104.379 27.0411 103.488 26.1243C102.596 25.1991 102.155 24.0301 102.163 22.6171C102.155 21.4228 102.479 20.3883 103.135 19.5136C103.799 18.6305 104.72 17.9492 105.897 17.4698C107.083 16.982 108.45 16.7381 109.998 16.7381C112.268 16.7381 114.056 17.2217 115.359 18.1889C116.671 19.1561 117.483 20.464 117.794 22.1125ZM121.976 43.6352V16.9904H126.468V20.1949H126.733C126.968 19.7239 127.3 19.2234 127.729 18.6936C128.158 18.1553 128.738 17.6969 129.47 17.3184C130.202 16.9315 131.135 16.7381 132.271 16.7381C133.768 16.7381 135.118 17.1208 136.321 17.8861C137.532 18.6431 138.491 19.7659 139.197 21.2546C139.912 22.7348 140.269 24.5515 140.269 26.7046C140.269 28.8325 139.92 30.6408 139.222 32.1295C138.524 33.6181 137.574 34.7536 136.371 35.5358C135.168 36.3179 133.806 36.709 132.284 36.709C131.173 36.709 130.252 36.524 129.521 36.1539C128.789 35.7839 128.2 35.3381 127.754 34.8167C127.317 34.2868 126.976 33.7864 126.733 33.3154H126.543V43.6352H121.976ZM126.455 26.6794C126.455 27.9326 126.632 29.0302 126.985 29.9722C127.347 30.9141 127.864 31.6501 128.537 32.1799C129.218 32.7014 130.042 32.9621 131.009 32.9621C132.019 32.9621 132.864 32.693 133.545 32.1547C134.226 31.608 134.739 30.8637 135.084 29.9217C135.437 28.9713 135.614 27.8905 135.614 26.6794C135.614 25.4767 135.442 24.4086 135.097 23.475C134.752 22.5414 134.239 21.8097 133.558 21.2798C132.876 20.7499 132.027 20.485 131.009 20.485C130.034 20.485 129.205 20.7415 128.524 21.2546C127.843 21.7676 127.325 22.4867 126.972 23.4119C126.627 24.3371 126.455 25.4262 126.455 26.6794ZM148.747 10.5311V36.3684H144.18V10.5311H148.747ZM159.02 36.7595C157.792 36.7595 156.686 36.5408 155.702 36.1035C154.726 35.6577 153.952 35.0017 153.38 34.1354C152.817 33.2691 152.535 32.201 152.535 30.931C152.535 29.8376 152.737 28.9334 153.141 28.2185C153.544 27.5036 154.095 26.9317 154.793 26.5028C155.491 26.0739 156.278 25.75 157.153 25.5314C158.036 25.3043 158.948 25.1403 159.89 25.0393C161.026 24.9216 161.947 24.8165 162.653 24.724C163.36 24.623 163.873 24.4716 164.192 24.2698C164.52 24.0595 164.684 23.7357 164.684 23.2984V23.2227C164.684 22.2723 164.402 21.5363 163.839 21.0149C163.275 20.4934 162.464 20.2327 161.404 20.2327C160.286 20.2327 159.398 20.4766 158.742 20.9644C158.095 21.4522 157.657 22.0284 157.43 22.6928L153.166 22.0872C153.502 20.9097 154.057 19.9257 154.831 19.1351C155.605 18.3361 156.551 17.739 157.67 17.3437C158.788 16.94 160.025 16.7381 161.379 16.7381C162.312 16.7381 163.242 16.8474 164.167 17.0661C165.092 17.2848 165.937 17.6464 166.703 18.1511C167.468 18.6473 168.082 19.3244 168.545 20.1822C169.016 21.0401 169.251 22.1125 169.251 23.3993V36.3684H164.861V33.7065H164.709C164.432 34.2447 164.041 34.7494 163.536 35.2204C163.04 35.6829 162.413 36.0572 161.656 36.3432C160.908 36.6207 160.029 36.7595 159.02 36.7595ZM160.206 33.4037C161.122 33.4037 161.917 33.2228 162.59 32.8612C163.263 32.4911 163.78 32.0033 164.142 31.3978C164.512 30.7922 164.697 30.132 164.697 29.4171V27.1336C164.554 27.2513 164.31 27.3607 163.965 27.4616C163.629 27.5625 163.25 27.6508 162.83 27.7265C162.409 27.8022 161.993 27.8695 161.581 27.9284C161.169 27.9873 160.811 28.0377 160.508 28.0798C159.827 28.1723 159.217 28.3237 158.679 28.5339C158.141 28.7442 157.716 29.0386 157.405 29.4171C157.094 29.7871 156.938 30.2665 156.938 30.8553C156.938 31.6963 157.245 32.3313 157.859 32.7603C158.473 33.1892 159.255 33.4037 160.206 33.4037ZM189.159 22.1125L184.996 22.5666C184.878 22.1461 184.672 21.7508 184.378 21.3807C184.092 21.0107 183.705 20.7121 183.217 20.485C182.729 20.2579 182.132 20.1444 181.426 20.1444C180.475 20.1444 179.676 20.3504 179.029 20.7626C178.389 21.1747 178.074 21.7088 178.082 22.3648C178.074 22.9283 178.28 23.3867 178.7 23.7399C179.129 24.0932 179.836 24.3833 180.82 24.6104L184.125 25.3169C185.959 25.7122 187.321 26.3388 188.213 27.1967C189.113 28.0545 189.567 29.1774 189.575 30.5651C189.567 31.7846 189.21 32.8612 188.503 33.7948C187.805 34.7199 186.834 35.4432 185.589 35.9647C184.344 36.4862 182.914 36.7469 181.299 36.7469C178.928 36.7469 177.018 36.2507 175.572 35.2582C174.125 34.2574 173.263 32.8654 172.986 31.0824L177.439 30.6534C177.641 31.5281 178.07 32.1883 178.726 32.6341C179.382 33.0799 180.235 33.3027 181.287 33.3027C182.372 33.3027 183.242 33.0799 183.898 32.6341C184.563 32.1883 184.895 31.6375 184.895 30.9814C184.895 30.4263 184.68 29.968 184.251 29.6063C183.831 29.2446 183.175 28.9671 182.283 28.7736L178.978 28.0798C177.119 27.6929 175.744 27.0411 174.853 26.1243C173.961 25.1991 173.52 24.0301 173.528 22.6171C173.52 21.4228 173.843 20.3883 174.499 19.5136C175.164 18.6305 176.085 17.9492 177.262 17.4698C178.448 16.982 179.815 16.7381 181.362 16.7381C183.633 16.7381 185.421 17.2217 186.724 18.1889C188.036 19.1561 188.848 20.464 189.159 22.1125ZM197.908 25.0141V36.3684H193.341V10.5311H197.807V20.2832H198.034C198.488 19.1898 199.191 18.3277 200.141 17.6969C201.1 17.0577 202.32 16.7381 203.8 16.7381C205.145 16.7381 206.319 17.0199 207.32 17.5834C208.32 18.1469 209.094 18.9711 209.641 20.0561C210.196 21.141 210.474 22.4657 210.474 24.0301V36.3684H205.907V24.7366C205.907 23.4329 205.57 22.4194 204.897 21.6961C204.233 20.9644 203.299 20.5986 202.097 20.5986C201.289 20.5986 200.566 20.7752 199.927 21.1284C199.296 21.4733 198.8 21.9737 198.438 22.6297C198.085 23.2857 197.908 24.0805 197.908 25.0141Z" fill="white" fill-opacity="0.78"/>
<rect x="13.0264" width="14.2105" height="10.6579" fill="white" fill-opacity="0.78"/>
<rect y="27.2368" width="40.2632" height="10.6579" fill="white" fill-opacity="0.78"/>
<rect x="28.421" y="16.5789" width="11.8421" height="21.3158" fill="white" fill-opacity="0.78"/>
<rect y="16.5789" width="11.8421" height="21.3158" fill="white" fill-opacity="0.78"/>
</svg>
