<svg width="171" height="44" viewBox="0 0 171 44" fill="none" xmlns="http://www.w3.org/2000/svg">
<path d="M80.7283 8.34688V34.1842H76.5651L64.3908 16.5851H64.1763V34.1842H59.4958V8.34688H63.6843L75.846 25.9587H76.0731V8.34688H80.7283ZM94.0791 34.5627C92.1867 34.5627 90.5466 34.1464 89.1589 33.3137C87.7711 32.4811 86.6946 31.3162 85.9292 29.8191C85.1723 28.322 84.7938 26.5726 84.7938 24.5709C84.7938 22.5692 85.1723 20.8156 85.9292 19.3101C86.6946 17.8046 87.7711 16.6355 89.1589 15.8029C90.5466 14.9702 92.1867 14.5539 94.0791 14.5539C95.9715 14.5539 97.6115 14.9702 98.9993 15.8029C100.387 16.6355 101.459 17.8046 102.216 19.3101C102.982 20.8156 103.364 22.5692 103.364 24.5709C103.364 26.5726 102.982 28.322 102.216 29.8191C101.459 31.3162 100.387 32.4811 98.9993 33.3137C97.6115 34.1464 95.9715 34.5627 94.0791 34.5627ZM94.1043 30.9041C95.1304 30.9041 95.9883 30.6223 96.6779 30.0588C97.3676 29.4869 97.8807 28.7215 98.2171 27.7627C98.5619 26.8039 98.7343 25.7358 98.7343 24.5583C98.7343 23.3724 98.5619 22.3 98.2171 21.3412C97.8807 20.374 97.3676 19.6045 96.6779 19.0325C95.9883 18.4606 95.1304 18.1747 94.1043 18.1747C93.053 18.1747 92.1783 18.4606 91.4802 19.0325C90.7905 19.6045 90.2733 20.374 89.9285 21.3412C89.592 22.3 89.4238 23.3724 89.4238 24.5583C89.4238 25.7358 89.592 26.8039 89.9285 27.7627C90.2733 28.7215 90.7905 29.4869 91.4802 30.0588C92.1783 30.6223 93.053 30.9041 94.1043 30.9041ZM116.917 14.8062V18.3387H105.777V14.8062H116.917ZM108.527 10.1636H113.094V28.3557C113.094 28.9696 113.187 29.4406 113.372 29.7686C113.565 30.0882 113.818 30.3069 114.129 30.4247C114.44 30.5424 114.785 30.6013 115.163 30.6013C115.449 30.6013 115.71 30.5803 115.946 30.5382C116.189 30.4962 116.374 30.4583 116.501 30.4247L117.27 33.995C117.026 34.0791 116.677 34.1716 116.223 34.2725C115.777 34.3734 115.231 34.4323 114.583 34.4491C113.439 34.4828 112.409 34.3104 111.492 33.9319C110.575 33.545 109.848 32.9478 109.31 32.1404C108.78 31.333 108.519 30.3237 108.527 29.1126V10.1636ZM120.736 34.1842V14.8062H125.303V34.1842H120.736ZM123.033 12.056C122.309 12.056 121.687 11.8162 121.165 11.3368C120.644 10.849 120.383 10.2645 120.383 9.58324C120.383 8.89357 120.644 8.30903 121.165 7.82963C121.687 7.34182 122.309 7.09791 123.033 7.09791C123.764 7.09791 124.387 7.34182 124.9 7.82963C125.421 8.30903 125.682 8.89357 125.682 9.58324C125.682 10.2645 125.421 10.849 124.9 11.3368C124.387 11.8162 123.764 12.056 123.033 12.056ZM138.452 34.5627C136.56 34.5627 134.92 34.1464 133.532 33.3137C132.144 32.4811 131.068 31.3162 130.302 29.8191C129.545 28.322 129.167 26.5726 129.167 24.5709C129.167 22.5692 129.545 20.8156 130.302 19.3101C131.068 17.8046 132.144 16.6355 133.532 15.8029C134.92 14.9702 136.56 14.5539 138.452 14.5539C140.345 14.5539 141.985 14.9702 143.372 15.8029C144.76 16.6355 145.833 17.8046 146.59 19.3101C147.355 20.8156 147.738 22.5692 147.738 24.5709C147.738 26.5726 147.355 28.322 146.59 29.8191C145.833 31.3162 144.76 32.4811 143.372 33.3137C141.985 34.1464 140.345 34.5627 138.452 34.5627ZM138.478 30.9041C139.504 30.9041 140.361 30.6223 141.051 30.0588C141.741 29.4869 142.254 28.7215 142.59 27.7627C142.935 26.8039 143.108 25.7358 143.108 24.5583C143.108 23.3724 142.935 22.3 142.59 21.3412C142.254 20.374 141.741 19.6045 141.051 19.0325C140.361 18.4606 139.504 18.1747 138.478 18.1747C137.426 18.1747 136.551 18.4606 135.853 19.0325C135.164 19.6045 134.646 20.374 134.302 21.3412C133.965 22.3 133.797 23.3724 133.797 24.5583C133.797 25.7358 133.965 26.8039 134.302 27.7627C134.646 28.7215 135.164 29.4869 135.853 30.0588C136.551 30.6223 137.426 30.9041 138.478 30.9041ZM156.181 22.8299V34.1842H151.614V14.8062H155.979V18.099H156.206C156.652 17.014 157.362 16.1519 158.338 15.5127C159.322 14.8735 160.537 14.5539 161.984 14.5539C163.321 14.5539 164.486 14.8399 165.479 15.4118C166.48 15.9837 167.253 16.8121 167.8 17.8971C168.355 18.9821 168.628 20.2983 168.62 21.8459V34.1842H164.053V22.5524C164.053 21.2571 163.717 20.2437 163.044 19.5119C162.379 18.7802 161.458 18.4144 160.281 18.4144C159.482 18.4144 158.771 18.591 158.149 18.9442C157.535 19.2891 157.051 19.7895 156.698 20.4455C156.353 21.1015 156.181 21.8963 156.181 22.8299Z" fill="white" fill-opacity="0.78"/>
<path d="M33.7224 17.8014V35.0263H30.9469L22.8307 23.2935H22.6877V35.0263H19.5673V17.8014H22.3597L30.4675 29.5426H30.6189V17.8014H33.7224Z" fill="white" fill-opacity="0.78"/>
<rect x="10.7632" y="10.8421" width="33.1579" height="30.7895" stroke="white" stroke-opacity="0.78" stroke-width="2.36842"/>
<path d="M41.9519 8.47333L35.1863 2.55243H3.25757L10.0242 8.47333H41.9519Z" stroke="white" stroke-opacity="0.78" stroke-width="2.36842"/>
<path d="M9.57898 9.65788L0.105295 1.36841V34.5263L9.57898 42.8158V9.65788Z" fill="white" fill-opacity="0.78"/>
</svg>
