<svg width="240" height="44" viewBox="0 0 240 44" fill="none" xmlns="http://www.w3.org/2000/svg">
<path d="M55.5447 8.34688V34.1842H50.8642V8.34688H55.5447ZM81.8457 8.34688V34.1842H77.6824L65.5081 16.5851H65.2936V34.1842H60.6131V8.34688H64.8016L76.9633 25.9587H77.1904V8.34688H81.8457ZM85.8102 12.2704V8.34688H106.425V12.2704H98.4387V34.1842H93.796V12.2704H85.8102ZM110.399 34.1842V8.34688H127.203V12.2704H115.079V19.2848H126.332V23.2084H115.079V30.2607H127.304V34.1842H110.399ZM131.978 34.1842V8.34688H141.667C143.652 8.34688 145.317 8.69172 146.663 9.38138C148.017 10.0711 149.039 11.0383 149.729 12.283C150.427 13.5194 150.776 14.9618 150.776 16.6103C150.776 18.2672 150.422 19.7054 149.716 20.9249C149.018 22.136 147.988 23.0738 146.625 23.7383C145.263 24.3943 143.589 24.7223 141.604 24.7223H134.703V20.8366H140.973C142.134 20.8366 143.084 20.6768 143.824 20.3572C144.564 20.0292 145.111 19.554 145.464 18.9316C145.826 18.3008 146.007 17.527 146.007 16.6103C146.007 15.6935 145.826 14.9113 145.464 14.2637C145.103 13.6077 144.552 13.1115 143.812 12.7751C143.072 12.4302 142.117 12.2578 140.948 12.2578H136.658V34.1842H131.978ZM145.326 22.4767L151.722 34.1842H146.499L140.216 22.4767H145.326ZM177.2 17.0645H172.481C172.347 16.2907 172.099 15.6052 171.737 15.0081C171.375 14.4025 170.925 13.8895 170.387 13.4689C169.849 13.0484 169.235 12.733 168.545 12.5227C167.864 12.3041 167.128 12.1947 166.337 12.1947C164.933 12.1947 163.688 12.548 162.603 13.2545C161.518 13.9525 160.669 14.9786 160.055 16.3327C159.441 17.6784 159.134 19.3227 159.134 21.2655C159.134 23.242 159.441 24.9073 160.055 26.2614C160.677 27.6071 161.526 28.6248 162.603 29.3145C163.688 29.9957 164.929 30.3364 166.325 30.3364C167.099 30.3364 167.822 30.2354 168.495 30.0336C169.176 29.8233 169.786 29.5163 170.324 29.1126C170.871 28.7089 171.329 28.2127 171.699 27.6239C172.078 27.0352 172.338 26.3624 172.481 25.6054L177.2 25.6306C177.023 26.8586 176.64 28.0108 176.052 29.0874C175.471 30.1639 174.71 31.1143 173.768 31.9386C172.826 32.7544 171.724 33.3936 170.463 33.8562C169.201 34.3104 167.801 34.5374 166.262 34.5374C163.991 34.5374 161.964 34.0118 160.181 32.9605C158.398 31.9091 156.993 30.391 155.967 28.4061C154.941 26.4212 154.428 24.041 154.428 21.2655C154.428 18.4816 154.945 16.1014 155.98 14.125C157.014 12.1401 158.423 10.6219 160.206 9.57062C161.989 8.5193 164.008 7.99364 166.262 7.99364C167.7 7.99364 169.037 8.19549 170.274 8.5992C171.51 9.00291 172.612 9.59585 173.579 10.378C174.546 11.1518 175.341 12.1022 175.963 13.2292C176.594 14.3478 177.006 15.6262 177.2 17.0645ZM204.573 21.2655C204.573 24.0494 204.051 26.4338 203.009 28.4187C201.974 30.3952 200.561 31.9091 198.77 32.9605C196.987 34.0118 194.964 34.5374 192.701 34.5374C190.439 34.5374 188.412 34.0118 186.621 32.9605C184.837 31.9007 183.425 30.3826 182.382 28.4061C181.347 26.4212 180.83 24.041 180.83 21.2655C180.83 18.4816 181.347 16.1014 182.382 14.125C183.425 12.1401 184.837 10.6219 186.621 9.57062C188.412 8.5193 190.439 7.99364 192.701 7.99364C194.964 7.99364 196.987 8.5193 198.77 9.57062C200.561 10.6219 201.974 12.1401 203.009 14.125C204.051 16.1014 204.573 18.4816 204.573 21.2655ZM199.867 21.2655C199.867 19.3059 199.56 17.6532 198.946 16.3075C198.341 14.9534 197.5 13.9315 196.423 13.2418C195.347 12.5438 194.106 12.1947 192.701 12.1947C191.297 12.1947 190.056 12.5438 188.98 13.2418C187.903 13.9315 187.058 14.9534 186.444 16.3075C185.838 17.6532 185.536 19.3059 185.536 21.2655C185.536 23.2252 185.838 24.8821 186.444 26.2362C187.058 27.5819 187.903 28.6038 188.98 29.3019C190.056 29.9915 191.297 30.3364 192.701 30.3364C194.106 30.3364 195.347 29.9915 196.423 29.3019C197.5 28.6038 198.341 27.5819 198.946 26.2362C199.56 24.8821 199.867 23.2252 199.867 21.2655ZM208.998 8.34688H214.726L222.396 27.0688H222.699L230.369 8.34688H236.097V34.1842H231.606V16.4337H231.366L224.225 34.1085H220.869L213.729 16.3958H213.489V34.1842H208.998V8.34688Z" fill="white" fill-opacity="0.78"/>
<rect x="0.947388" y="3.73682" width="35.5263" height="35.5263" rx="3.55263" fill="white" fill-opacity="0.78"/>
<rect x="5.6842" y="12.0263" width="2.36842" height="14.2105" fill="white" fill-opacity="0.78"/>
<rect x="11.6053" y="8.47363" width="2.36842" height="21.3158" fill="white" fill-opacity="0.78"/>
<rect x="17.5263" y="8.47363" width="2.36842" height="21.3158" fill="white" fill-opacity="0.78"/>
<rect x="23.4474" y="8.47363" width="2.36842" height="21.3158" fill="white" fill-opacity="0.78"/>
<path d="M6.86847 32.1578C10.2237 34.8387 19.8948 38.592 31.7369 32.1578" stroke="white" stroke-opacity="0.78" stroke-width="2.36842" stroke-linecap="round"/>
<rect x="29.3685" y="12.0263" width="2.36842" height="14.2105" fill="white" fill-opacity="0.78"/>
</svg>
