<svg width="233" height="44" viewBox="0 0 233 44" fill="none" xmlns="http://www.w3.org/2000/svg">
<circle cx="18.158" cy="21.5" r="17.7632" fill="white" fill-opacity="0.78"/>
<path d="M25.2632 21.5C25.2632 26.0781 21.5519 29.7895 16.9738 29.7895C12.3956 29.7895 8.6843 26.0781 8.6843 21.5C8.6843 16.9218 12.3956 13.2105 16.9738 13.2105C19.2933 13.2105 21.3903 14.1632 22.8948 15.6986" stroke="white" stroke-opacity="0.78" stroke-width="2.36842"/>
<path d="M20.5264 23.8684L25.2633 21.5L28.2238 25.6447" stroke="white" stroke-opacity="0.78" stroke-width="2.36842"/>
<path d="M58.5372 41.8547C56.8971 41.8547 55.4884 41.6318 54.3109 41.186C53.1334 40.7487 52.1872 40.1599 51.4723 39.4198C50.7574 38.6797 50.2612 37.8596 49.9836 36.9597L54.0964 35.963C54.2814 36.3415 54.5506 36.7158 54.9038 37.0859C55.2571 37.4643 55.7323 37.7755 56.3294 38.0194C56.935 38.2717 57.6961 38.3979 58.6129 38.3979C59.9081 38.3979 60.9805 38.0825 61.83 37.4517C62.6794 36.8293 63.1042 35.8032 63.1042 34.3734V30.7022H62.8771C62.6416 31.1732 62.2967 31.6568 61.8426 32.153C61.3968 32.6493 60.8039 33.0656 60.0637 33.402C59.332 33.7384 58.411 33.9067 57.3008 33.9067C55.8122 33.9067 54.4623 33.5576 53.2512 32.8595C52.0484 32.153 51.0896 31.1017 50.3747 29.7056C49.6682 28.301 49.315 26.5432 49.315 24.4321C49.315 22.3043 49.6682 20.5086 50.3747 19.0451C51.0896 17.5733 52.0526 16.4589 53.2638 15.7019C54.4749 14.9366 55.8248 14.5539 57.3135 14.5539C58.4489 14.5539 59.3825 14.7473 60.1142 15.1342C60.8543 15.5127 61.4431 15.9711 61.8804 16.5094C62.3178 17.0392 62.65 17.5397 62.8771 18.0106H63.1294V14.8062H67.6333V34.4996C67.6333 36.1565 67.238 37.5274 66.4474 38.6124C65.6568 39.6973 64.576 40.509 63.2051 41.0472C61.8342 41.5855 60.2782 41.8547 58.5372 41.8547ZM58.5751 30.3237C59.5423 30.3237 60.3665 30.0882 61.0478 29.6173C61.729 29.1463 62.2463 28.4692 62.5995 27.5861C62.9528 26.703 63.1294 25.6433 63.1294 24.4069C63.1294 23.1874 62.9528 22.1192 62.5995 21.2025C62.2547 20.2857 61.7416 19.575 61.0604 19.0704C60.3875 18.5573 59.5591 18.3008 58.5751 18.3008C57.5574 18.3008 56.7079 18.5657 56.0266 19.0956C55.3454 19.6255 54.8323 20.353 54.4875 21.2782C54.1427 22.1949 53.9703 23.2378 53.9703 24.4069C53.9703 25.5928 54.1427 26.6315 54.4875 27.523C54.8408 28.4061 55.358 29.0958 56.0393 29.592C56.7289 30.0798 57.5742 30.3237 58.5751 30.3237ZM72.3137 34.1842V14.8062H76.7419V18.0359H76.9438C77.297 16.9173 77.9026 16.0552 78.7605 15.4496C79.6268 14.8356 80.615 14.5287 81.7252 14.5287C81.9775 14.5287 82.2593 14.5413 82.5705 14.5665C82.8901 14.5833 83.155 14.6128 83.3653 14.6548V18.8559C83.1718 18.7886 82.8648 18.7298 82.4443 18.6793C82.0322 18.6204 81.6327 18.591 81.2458 18.591C80.4131 18.591 79.6646 18.7718 79.0002 19.1335C78.3441 19.4867 77.8269 19.9787 77.4484 20.6095C77.0699 21.2403 76.8807 21.9678 76.8807 22.7921V34.1842H72.3137ZM91.6287 34.5753C90.4007 34.5753 89.2947 34.3566 88.3107 33.9193C87.3351 33.4735 86.5613 32.8175 85.9894 31.9512C85.4259 31.0849 85.1441 30.0168 85.1441 28.7468C85.1441 27.6534 85.346 26.7492 85.7497 26.0343C86.1534 25.3194 86.7043 24.7475 87.4023 24.3186C88.1004 23.8896 88.8868 23.5658 89.7615 23.3472C90.6446 23.1201 91.5572 22.9561 92.4992 22.8551C93.6346 22.7374 94.5555 22.6323 95.262 22.5397C95.9685 22.4388 96.4816 22.2874 96.8012 22.0856C97.1292 21.8753 97.2932 21.5515 97.2932 21.1142V21.0385C97.2932 20.0881 97.0114 19.3521 96.4479 18.8307C95.8844 18.3092 95.0728 18.0485 94.0131 18.0485C92.8945 18.0485 92.0071 18.2924 91.3511 18.7802C90.7035 19.268 90.2661 19.8442 90.0391 20.5086L85.7749 19.903C86.1113 18.7255 86.6664 17.7415 87.4402 16.9509C88.214 16.1519 89.1602 15.5548 90.2788 15.1595C91.3974 14.7557 92.6337 14.5539 93.9878 14.5539C94.9214 14.5539 95.8508 14.6632 96.7759 14.8819C97.7011 15.1006 98.5464 15.4622 99.3117 15.9669C100.077 16.4631 100.691 17.1401 101.154 17.998C101.625 18.8559 101.86 19.9283 101.86 21.2151V34.1842H97.4698V31.5223H97.3184C97.0409 32.0605 96.6498 32.5652 96.1451 33.0362C95.6489 33.4987 95.0223 33.873 94.2654 34.159C93.5168 34.4365 92.6379 34.5753 91.6287 34.5753ZM92.8146 31.2195C93.7313 31.2195 94.5261 31.0386 95.199 30.677C95.8718 30.3069 96.3891 29.8191 96.7507 29.2135C97.1208 28.608 97.3058 27.9478 97.3058 27.2329V24.9494C97.1628 25.0671 96.9189 25.1765 96.5741 25.2774C96.2377 25.3783 95.8592 25.4666 95.4387 25.5423C95.0181 25.618 94.6018 25.6853 94.1897 25.7442C93.7776 25.8031 93.4201 25.8535 93.1173 25.8956C92.4361 25.9881 91.8263 26.1395 91.288 26.3497C90.7498 26.56 90.325 26.8544 90.0138 27.2329C89.7026 27.6029 89.547 28.0823 89.547 28.6711C89.547 29.5121 89.854 30.1471 90.468 30.5761C91.082 31.005 91.8642 31.2195 92.8146 31.2195ZM106.452 34.1842V14.8062H110.817V18.099H111.045C111.448 16.9888 112.117 16.1225 113.05 15.5001C113.984 14.8693 115.098 14.5539 116.394 14.5539C117.706 14.5539 118.812 14.8735 119.712 15.5127C120.62 16.1435 121.259 17.0056 121.629 18.099H121.831C122.26 17.0224 122.983 16.1645 124.001 15.5253C125.027 14.8777 126.242 14.5539 127.647 14.5539C129.43 14.5539 130.885 15.1174 132.012 16.2444C133.139 17.3714 133.703 19.0157 133.703 21.1772V34.1842H129.123V21.8837C129.123 20.681 128.803 19.8021 128.164 19.247C127.525 18.6835 126.743 18.4017 125.818 18.4017C124.716 18.4017 123.854 18.7466 123.231 19.4362C122.617 20.1175 122.31 21.0048 122.31 22.0982V34.1842H117.832V21.6945C117.832 20.6936 117.529 19.8946 116.924 19.2975C116.326 18.7003 115.544 18.4017 114.577 18.4017C113.921 18.4017 113.324 18.5699 112.785 18.9064C112.247 19.2344 111.818 19.7012 111.499 20.3067C111.179 20.9039 111.019 21.602 111.019 22.401V34.1842H106.452ZM138.336 34.1842V14.8062H142.701V18.099H142.928C143.332 16.9888 144 16.1225 144.934 15.5001C145.867 14.8693 146.982 14.5539 148.277 14.5539C149.589 14.5539 150.695 14.8735 151.595 15.5127C152.503 16.1435 153.143 17.0056 153.513 18.099H153.715C154.143 17.0224 154.867 16.1645 155.884 15.5253C156.911 14.8777 158.126 14.5539 159.53 14.5539C161.314 14.5539 162.769 15.1174 163.896 16.2444C165.023 17.3714 165.586 19.0157 165.586 21.1772V34.1842H161.007V21.8837C161.007 20.681 160.687 19.8021 160.048 19.247C159.409 18.6835 158.626 18.4017 157.701 18.4017C156.599 18.4017 155.737 18.7466 155.115 19.4362C154.501 20.1175 154.194 21.0048 154.194 22.0982V34.1842H149.715V21.6945C149.715 20.6936 149.413 19.8946 148.807 19.2975C148.21 18.7003 147.428 18.4017 146.46 18.4017C145.804 18.4017 145.207 18.5699 144.669 18.9064C144.131 19.2344 143.702 19.7012 143.382 20.3067C143.063 20.9039 142.903 21.602 142.903 22.401V34.1842H138.336ZM175.795 34.5753C174.568 34.5753 173.462 34.3566 172.478 33.9193C171.502 33.4735 170.728 32.8175 170.156 31.9512C169.593 31.0849 169.311 30.0168 169.311 28.7468C169.311 27.6534 169.513 26.7492 169.916 26.0343C170.32 25.3194 170.871 24.7475 171.569 24.3186C172.267 23.8896 173.054 23.5658 173.928 23.3472C174.811 23.1201 175.724 22.9561 176.666 22.8551C177.801 22.7374 178.722 22.6323 179.429 22.5397C180.135 22.4388 180.648 22.2874 180.968 22.0856C181.296 21.8753 181.46 21.5515 181.46 21.1142V21.0385C181.46 20.0881 181.178 19.3521 180.615 18.8307C180.051 18.3092 179.24 18.0485 178.18 18.0485C177.061 18.0485 176.174 18.2924 175.518 18.7802C174.87 19.268 174.433 19.8442 174.206 20.5086L169.942 19.903C170.278 18.7255 170.833 17.7415 171.607 16.9509C172.381 16.1519 173.327 15.5548 174.446 15.1595C175.564 14.7557 176.801 14.5539 178.155 14.5539C179.088 14.5539 180.018 14.6632 180.943 14.8819C181.868 15.1006 182.713 15.4622 183.479 15.9669C184.244 16.4631 184.858 17.1401 185.32 17.998C185.791 18.8559 186.027 19.9283 186.027 21.2151V34.1842H181.637V31.5223H181.485C181.208 32.0605 180.817 32.5652 180.312 33.0362C179.816 33.4987 179.189 33.873 178.432 34.159C177.684 34.4365 176.805 34.5753 175.795 34.5753ZM176.981 31.2195C177.898 31.2195 178.693 31.0386 179.366 30.677C180.039 30.3069 180.556 29.8191 180.918 29.2135C181.288 28.608 181.473 27.9478 181.473 27.2329V24.9494C181.33 25.0671 181.086 25.1765 180.741 25.2774C180.405 25.3783 180.026 25.4666 179.605 25.5423C179.185 25.618 178.769 25.6853 178.357 25.7442C177.944 25.8031 177.587 25.8535 177.284 25.8956C176.603 25.9881 175.993 26.1395 175.455 26.3497C174.917 26.56 174.492 26.8544 174.181 27.2329C173.869 27.6029 173.714 28.0823 173.714 28.6711C173.714 29.5121 174.021 30.1471 174.635 30.5761C175.249 31.005 176.031 31.2195 176.981 31.2195ZM190.619 34.1842V14.8062H195.047V18.0359H195.249C195.602 16.9173 196.208 16.0552 197.066 15.4496C197.932 14.8356 198.92 14.5287 200.031 14.5287C200.283 14.5287 200.565 14.5413 200.876 14.5665C201.195 14.5833 201.46 14.6128 201.671 14.6548V18.8559C201.477 18.7886 201.17 18.7298 200.75 18.6793C200.338 18.6204 199.938 18.591 199.551 18.591C198.719 18.591 197.97 18.7718 197.306 19.1335C196.65 19.4867 196.132 19.9787 195.754 20.6095C195.375 21.2403 195.186 21.9678 195.186 22.7921V34.1842H190.619ZM209.272 8.34688V34.1842H204.705V8.34688H209.272ZM216.807 41.451C216.184 41.451 215.608 41.4005 215.078 41.2996C214.557 41.207 214.14 41.0977 213.829 40.9715L214.889 37.4139C215.553 37.6073 216.146 37.6998 216.668 37.6914C217.189 37.683 217.648 37.519 218.043 37.1994C218.447 36.8882 218.787 36.3668 219.065 35.635L219.456 34.5879L212.429 14.8062H217.273L221.739 29.4406H221.941L226.42 14.8062H231.277L223.518 36.5308C223.157 37.5568 222.677 38.4358 222.08 39.1675C221.483 39.9076 220.751 40.4711 219.885 40.858C219.027 41.2533 218.001 41.451 216.807 41.451Z" fill="white" fill-opacity="0.78"/>
</svg>
