<svg width="24" height="24" viewBox="0 0 24 24" fill="none" xmlns="http://www.w3.org/2000/svg">
<path d="M22.1562 17.999H19.8568C18.9872 17.999 18.7253 17.3216 17.1665 15.8213C15.8042 14.5584 15.2289 14.4014 14.8843 14.4014C14.4077 14.4014 14.2777 14.5274 14.2777 15.1583V17.1471C14.2777 17.685 14.0963 18 12.6353 18C11.2179 17.9084 9.84337 17.4942 8.62498 16.7916C7.40659 16.0889 6.37918 15.1179 5.62738 13.9585C3.84293 11.821 2.60094 9.31299 2 6.63333C2 6.30186 2.13099 6.00141 2.78795 6.00141H5.08529C5.67575 6.00141 5.88835 6.25437 6.1201 6.83879C7.23552 9.99642 9.13889 12.7431 9.91172 12.7431C10.208 12.7431 10.3369 12.6171 10.3369 11.9067V8.65409C10.2392 7.17026 9.42001 7.04523 9.42001 6.5083C9.43037 6.36664 9.49774 6.23445 9.6078 6.13981C9.71787 6.04516 9.86196 5.99551 10.0095 6.00141H13.6207C14.1145 6.00141 14.2777 6.2379 14.2777 6.80584V11.1963C14.2777 11.6702 14.4893 11.8272 14.6384 11.8272C14.9346 11.8272 15.1624 11.6702 15.7055 11.1488C16.8691 9.78287 17.8202 8.26148 18.5288 6.63236C18.601 6.43655 18.7379 6.2689 18.9186 6.15512C19.0994 6.04133 19.3139 5.98768 19.5293 6.00238H21.8277C22.5169 6.00238 22.663 6.33385 22.5169 6.80681C21.6807 8.60786 20.6464 10.3176 19.4316 11.9067C19.1837 12.2701 19.085 12.4591 19.4316 12.8856C19.6593 13.217 20.4654 13.8645 21.0065 14.4799C21.7944 15.2359 22.4484 16.1101 22.9431 17.0676C23.1406 17.684 22.8121 17.999 22.1562 17.999Z" fill="#7454BD"/>
</svg>
