<svg width="24" height="24" viewBox="0 0 24 24" fill="none" xmlns="http://www.w3.org/2000/svg">
<mask id="mask0_18_5459" style="mask-type:luminance" maskUnits="userSpaceOnUse" x="3" y="3" width="19" height="19">
<path d="M3 3H22V22H3V3Z" fill="white"/>
</mask>
<g mask="url(#mask0_18_5459)">
<path d="M14.2931 3.17304L13.723 3.09335C12.0094 2.84696 10.2608 3.09071 8.6811 3.79619C7.10136 4.50166 5.75552 5.63979 4.8005 7.07789C3.78437 8.45254 3.17863 10.085 3.05299 11.7873C2.92735 13.4897 3.28692 15.1927 4.0903 16.7006C4.17252 16.8517 4.22371 17.0176 4.24088 17.1886C4.25806 17.3596 4.24087 17.5324 4.19033 17.6967C3.78022 19.1012 3.40011 20.5158 3 22L3.50014 21.8506C4.85051 21.492 6.20088 21.1334 7.55126 20.8046C7.83628 20.7456 8.13253 20.7734 8.40149 20.8843C9.61302 21.4732 10.937 21.7971 12.2846 21.8344C13.6322 21.8718 14.9722 21.6216 16.2148 21.1007C17.4573 20.5798 18.5735 19.8003 19.4887 18.8145C20.4038 17.8286 21.0965 16.6592 21.5205 15.3848C21.9444 14.1104 22.0897 12.7604 21.9466 11.4254C21.8035 10.0905 21.3753 8.80144 20.6908 7.64485C20.0063 6.48825 19.0813 5.49084 17.9778 4.71956C16.8744 3.94829 15.618 3.42098 14.2931 3.17304ZM16.8138 16.2423C16.4503 16.5665 16.007 16.7889 15.529 16.8869C15.0511 16.9848 14.5556 16.9549 14.0931 16.8002C11.9974 16.2116 10.1792 14.9022 8.96165 13.1045C8.49669 12.4686 8.123 11.7712 7.85134 11.0325C7.70415 10.604 7.67761 10.1435 7.77459 9.70095C7.87157 9.25843 8.08838 8.8508 8.40149 8.52229C8.55392 8.32855 8.7614 8.18503 8.99691 8.1104C9.23242 8.03578 9.48504 8.03351 9.72186 8.10391C9.92191 8.15372 10.0619 8.4426 10.242 8.66174C10.3887 9.07348 10.5588 9.47526 10.7521 9.86707C10.8986 10.0668 10.9598 10.3161 10.9223 10.5606C10.8848 10.8051 10.7517 11.0249 10.5521 11.172C10.102 11.5705 10.172 11.8992 10.4921 12.3474C11.1993 13.363 12.1759 14.1631 13.3128 14.6585C13.6329 14.7979 13.873 14.8278 14.0831 14.4991C14.1731 14.3696 14.2931 14.26 14.3931 14.1405C14.9733 13.4133 14.7933 13.4233 15.7135 13.8217C16.0069 13.9446 16.2903 14.0874 16.5637 14.2501C16.8338 14.4094 17.2439 14.5788 17.3039 14.8179C17.3617 15.0772 17.3465 15.3474 17.26 15.5987C17.1735 15.8501 17.0192 16.0727 16.8138 16.2423Z" fill="#7454BD"/>
</g>
</svg>
